PathFileType	4	(X/Y/Z)	/Users/itak/Documents/Research/Walk-IL/dataset/trc/00108_00007.trc
DataRate	CameraRate	NumFrames	NumMarkers	Units	OrigDataRate	OrigDataStartFrame	OrigNumFrames
100.000000	100.000000	4	53	mm	100.000000	390	520
Frame#	Time	RPSI			LPSI			L3			STRN			T10			C7			CLAV			RBAK			LBAK			LSHO			LUPA			LAEL			LAOL			LWTS			LWPS			LFRA			LIFD			LHPS			LHTS			RSHO			RUPA			RAEL			RAOL			RWTS			RWPS			RFRA			RIFD			RHTS			RHPS			RBHD			LFHD			RFHD			LBHD			LHIP			RHIP			RASI			LASI			LKNE			LTHI			LANK			LTIP			LTOE			LMT1			LMT5			LHEE			RKNE			RTHI			RANK			RTIP			RTOE			RMT1			RMT5			RHEE			
		X1	Y1	Z1	X2	Y2	Z2	X3	Y3	Z3	X4	Y4	Z4	X5	Y5	Z5	X6	Y6	Z6	X7	Y7	Z7	X8	Y8	Z8	X9	Y9	Z9	X10	Y10	Z10	X11	Y11	Z11	X12	Y12	Z12	X13	Y13	Z13	X14	Y14	Z14	X15	Y15	Z15	X16	Y16	Z16	X17	Y17	Z17	X18	Y18	Z18	X19	Y19	Z19	X20	Y20	Z20	X21	Y21	Z21	X22	Y22	Z22	X23	Y23	Z23	X24	Y24	Z24	X25	Y25	Z25	X26	Y26	Z26	X27	Y27	Z27	X28	Y28	Z28	X29	Y29	Z29	X30	Y30	Z30	X31	Y31	Z31	X32	Y32	Z32	X33	Y33	Z33	X34	Y34	Z34	X35	Y35	Z35	X36	Y36	Z36	X37	Y37	Z37	X38	Y38	Z38	X39	Y39	Z39	X40	Y40	Z40	X41	Y41	Z41	X42	Y42	Z42	X43	Y43	Z43	X44	Y44	Z44	X45	Y45	Z45	X46	Y46	Z46	X47	Y47	Z47	X48	Y48	Z48	X49	Y49	Z49	X50	Y50	Z50	X51	Y51	Z51	X52	Y52	Z52	X53	Y53	Z53	

391	3.9	-1266.77880859375	1112.199462890625	-283.045654296875	-1244.65966796875	1121.643676757812	-416.0991821289062	-1260.922241210938	1158.10009765625	-349.6128234863281	-1015.263000488281	1331.76611328125	-307.9432678222656	-1266.639770507812	1310.590698242188	-336.9017028808594	-1197.838500976562	1598.259643554688	-344.1344299316406	-1032.404174804688	1470.3388671875	-316.4595642089844	-1282.116455078125	1423.166137695312	-261.9101867675781	-1197.100341796875	1579.227905273438	-445.7560729980469	-1106.415283203125	1553.712524414062	-504.6253051757812	-1134.8232421875	1425.914428710938	-577.7273559570312	-1147.879028320312	1210.996704101562	-611.102294921875	-1215.163940429688	1201.914184570312	-555.3111572265625	-1072.190307617188	944.3350830078125	-584.852783203125	-1155.503784179688	927.0313110351562	-611.9561767578125	-1143.499267578125	1094.609985351562	-622.4915771484375	-1076.882690429688	750.235107421875	-574.5540161132812	-1132.332153320312	850.3511352539062	-618.4456787109375	-1063.953735351562	855.3345947265625	-601.6012573242188	-1163.23193359375	1575.55126953125	-157.7188415527344	-1191.419921875	1504.0966796875	-95.21448516845703	-1215.804321289062	1207.640869140625	-73.65819549560547	-1217.83740234375	1206.140625	-171.1591339111328	-1054.294067382812	977.251708984375	-73.81011962890625	-1129.308471679688	953.1920776367188	-49.23334121704102	-1190.420654296875	1134.611206054688	-56.62147903442383	-1008.498046875	786.2243041992188	-81.38470458984375	-1015.111450195312	872.7618408203125	-62.45841979980469	-1084.397216796875	858.6741943359375	-38.13853073120117	-1146.182739257812	1766.732421875	-262.404052734375	-987.895751953125	1811.717041015625	-409.0777587890625	-980.938720703125	1829.246337890625	-280.3803100585938	-1160.537719726562	1752.950317382812	-396.3864440917969	-1134.89599609375	1035.246826171875	-512.5610961914062	-1170.780639648438	1003.579528808594	-147.4529113769531	-1074.621704101562	1071.432983398438	-181.1661224365234	-1038.334838867188	1086.364379882812	-442.2988891601562	-974.452880859375	555.9036865234375	-464.3292236328125	-1039.362670898438	685.619140625	-502.1270446777344	-953.8353271484375	39.53218460083008	-464.80078125	-1000.260986328125	290.2540588378906	-497.3622436523438	-738.934326171875	84.01579284667969	-384.5433044433594	-818.9660034179688	71.08479309082031	-359.3397827148438	-829.6196899414062	58.99040603637695	-474.5027160644531	-1027.54638671875	27.77621269226074	-408.8097534179688	-1216.076904296875	513.673095703125	-197.2547454833984	-1167.007202148438	790.4659423828125	-159.5398559570312	-1452.666748046875	44.41460037231445	-234.4419097900391	-1278.60498046875	387.4666442871094	-190.4018859863281	-1216.820678710938	43.19435119628906	-249.2976379394531	-1269.119873046875	32.19744491577148	-297.0695495605469	-1323.351928710938	40.42605209350586	-188.8101654052734	-1502.658447265625	56.36005783081055	-291.7871704101562	
392	3.91	-1275.057250976562	1112.258666992188	-281.9537353515625	-1253.0869140625	1121.568359375	-414.9813232421875	-1269.13037109375	1158.408203125	-348.5857849121094	-1022.789184570312	1331.668823242188	-306.8952941894531	-1274.203735351562	1311.068237304688	-336.29150390625	-1204.427978515625	1598.446533203125	-343.1954345703125	-1039.459594726562	1470.324462890625	-315.3333740234375	-1289.35205078125	1423.571899414062	-261.2142028808594	-1203.568603515625	1579.641357421875	-444.8180236816406	-1112.8125	1554.052368164062	-503.5870971679688	-1141.399658203125	1426.334350585938	-576.7003173828125	-1155.151245117188	1211.39697265625	-609.8427734375	-1222.372436523438	1202.561157226562	-553.901123046875	-1080.323974609375	944.4828491210938	-583.6307373046875	-1163.763549804688	927.452392578125	-610.5269165039062	-1151.20361328125	1095.008544921875	-621.1959838867188	-1085.69189453125	750.38037109375	-573.07861328125	-1140.90087890625	850.6554565429688	-616.952392578125	-1072.45556640625	855.3843994140625	-600.2974243164062	-1170.32666015625	1575.599243164062	-156.7905883789062	-1198.698364257812	1504.18798828125	-94.36383056640625	-1223.240600585938	1207.770751953125	-72.52254486083984	-1225.280151367188	1206.208862304688	-170.0386047363281	-1061.011840820312	977.8375244140625	-72.60275268554688	-1135.920043945312	953.5374145507812	-47.9608154296875	-1197.672485351562	1134.77783203125	-55.45861434936523	-1014.580627441406	786.9431762695312	-80.04609680175781	-1021.471008300781	873.4855346679688	-61.19047546386719	-1090.703857421875	859.1763305664062	-36.843505859375	-1152.500122070312	1766.738647460938	-261.0289916992188	-993.865966796875	1811.468139648438	-407.4372253417969	-987.0625610351562	1828.746459960938	-278.6876525878906	-1166.760986328125	1753.25341796875	-395.0636596679688	-1143.274536132812	1034.914794921875	-511.4036865234375	-1178.959716796875	1003.868103027344	-146.4384002685547	-1082.859130859375	1071.680786132812	-180.1886444091797	-1046.615844726562	1086.255737304688	-441.3827209472656	-981.1035766601562	556.3784790039062	-464.03955078125	-1046.889770507812	685.7383422851562	-501.5279846191406	-955.2744140625	40.24274826049805	-464.6107177734375	-1005.064636230469	290.538330078125	-497.0103454589844	-741.4342041015625	90.36764526367188	-385.5531616210938	-821.0891723632812	75.40251922607422	-359.7631225585938	-831.6975708007812	62.68964004516602	-474.8436889648438	-1028.488525390625	26.45669937133789	-408.3927001953125	-1222.298095703125	513.797119140625	-196.7767181396484	-1174.557373046875	790.6358642578125	-158.4342651367188	-1453.107299804688	42.34434509277344	-235.0402984619141	-1283.156127929688	386.8517150878906	-190.3098449707031	-1217.177978515625	43.36747360229492	-249.5447387695312	-1269.282836914062	31.73374366760254	-297.2356567382812	-1323.620483398438	40.53914260864258	-189.0623626708984	-1503.1103515625	53.10268020629883	-292.5983276367188	
393	3.92	-1283.279296875	1112.24560546875	-280.9058532714844	-1261.404174804688	1121.46142578125	-413.8927307128906	-1277.28369140625	1158.68408203125	-347.6219787597656	-1030.225952148438	1331.518920898438	-305.9101257324219	-1281.683837890625	1311.50390625	-335.739990234375	-1210.913208007812	1598.584594726562	-342.3440856933594	-1046.415771484375	1470.256469726562	-314.290283203125	-1296.469360351562	1423.930541992188	-260.5863342285156	-1209.937744140625	1579.987670898438	-443.9634094238281	-1119.11083984375	1554.324340820312	-502.6258544921875	-1147.899536132812	1426.704467773438	-575.769775390625	-1162.325073242188	1211.737426757812	-608.6859741210938	-1229.511474609375	1203.148315429688	-552.6351318359375	-1088.26416015625	944.6065673828125	-582.43212890625	-1171.815063476562	927.8101196289062	-609.1614379882812	-1158.7705078125	1095.344360351562	-619.9911499023438	-1094.251220703125	750.5045166015625	-571.5435791015625	-1149.231689453125	850.9003295898438	-615.4791870117188	-1080.732055664062	855.4025268554688	-598.9823608398438	-1177.296997070312	1575.619018554688	-155.9511413574219	-1205.859985351562	1504.264892578125	-93.59840393066406	-1230.727172851562	1207.921875	-71.44509124755859	-1232.781860351562	1206.290283203125	-168.9797973632812	-1067.880493164062	978.3820190429688	-71.40377807617188	-1142.680419921875	953.8709106445312	-46.69322204589844	-1205.008544921875	1134.953125	-54.33814239501953	-1020.897155761719	787.5994262695312	-78.71298217773438	-1028.02392578125	874.1505737304688	-59.92411804199219	-1097.192993164062	859.64599609375	-35.54309844970703	-1158.784912109375	1766.659790039062	-259.7415771484375	-999.806640625	1811.21044921875	-405.8704223632812	-993.1610717773438	1828.226318359375	-277.0651245117188	-1172.9296875	1753.475341796875	-393.8218688964844	-1151.557861328125	1034.550415039062	-510.2928466796875	-1187.059326171875	1004.104370117188	-145.4522399902344	-1091.0419921875	1071.879516601562	-179.2442169189453	-1054.783325195312	1086.14599609375	-440.5243530273438	-987.7168579101562	556.7904663085938	-463.8172607421875	-1054.291870117188	685.8208618164062	-501.0181579589844	-956.9651489257812	40.91867446899414	-464.5489501953125	-1009.938842773438	290.7837829589844	-496.7583618164062	-744.125732421875	96.45765686035156	-387.0109252929688	-823.3101806640625	79.55702209472656	-360.5148620605469	-834.0829467773438	66.24095916748047	-475.5058898925781	-1029.568725585938	25.20419120788574	-407.9656066894531	-1228.2666015625	513.8297729492188	-196.2852935791016	-1181.9794921875	790.75439453125	-157.3294219970703	-1453.576293945312	40.38290405273438	-235.5116271972656	-1287.4833984375	386.1733093261719	-190.1804046630859	-1217.5712890625	43.56119537353516	-249.8053283691406	-1269.464233398438	31.33351707458496	-297.4017944335938	-1323.93115234375	40.64645004272461	-189.3219299316406	-1503.551635742188	49.96644592285156	-293.2731018066406	
394	3.93	-1291.428466796875	1112.172973632812	-279.9204711914062	-1269.593017578125	1121.312377929688	-412.8559875488281	-1285.368530273438	1158.895141601562	-346.7420043945312	-1037.5693359375	1331.282592773438	-304.9840698242188	-1289.069946289062	1311.87158203125	-335.2554016113281	-1217.285034179688	1598.655639648438	-341.5842590332031	-1053.262084960938	1470.09912109375	-313.3286743164062	-1303.472045898438	1424.226196289062	-260.031005859375	-1216.19921875	1580.235107421875	-443.1998291015625	-1125.3017578125	1554.479125976562	-501.7437438964844	-1154.333251953125	1426.980712890625	-574.9374389648438	-1169.395629882812	1211.971313476562	-607.6438598632812	-1236.588623046875	1203.623657226562	-551.5387573242188	-1096.003051757812	944.6641845703125	-581.25830078125	-1179.636596679688	928.0574340820312	-607.8877563476562	-1166.1875	1095.569946289062	-618.8878173828125	-1102.536499023438	750.5702514648438	-569.9788208007812	-1157.289428710938	851.0426635742188	-614.0611572265625	-1088.755004882812	855.3592529296875	-597.6633911132812	-1184.138549804688	1575.582275390625	-155.201416015625	-1212.90869140625	1504.297241210938	-92.9202880859375	-1238.257690429688	1208.058227539062	-70.42060852050781	-1240.341064453125	1206.34716796875	-167.97900390625	-1074.885620117188	978.85595703125	-70.21934509277344	-1149.575927734375	954.1603393554688	-45.42970657348633	-1212.423828125	1135.101684570312	-53.25604629516602	-1027.426879882812	788.1655883789062	-77.38898468017578	-1034.75	874.7296142578125	-58.66712188720703	-1103.842895507812	860.0538330078125	-34.23347091674805	-1165.028686523438	1766.473510742188	-258.5443420410156	-1005.720947265625	1810.9267578125	-404.3861999511719	-999.23046875	1827.676513671875	-275.527587890625	-1179.036987304688	1753.584716796875	-392.6622314453125	-1159.741455078125	1034.130493164062	-509.2353515625	-1195.088256835938	1004.286071777344	-144.4935455322266	-1099.153686523438	1071.994995117188	-178.3219604492188	-1062.812133789062	1086.011596679688	-439.7183837890625	-994.1849365234375	557.154296875	-463.6386108398438	-1061.514892578125	685.867431640625	-500.6055908203125	-958.9859619140625	41.57575988769531	-464.6227722167969	-1014.85302734375	291.007568359375	-496.5966186523438	-747.0081176757812	102.0810241699219	-388.8973693847656	-825.633544921875	83.43196105957031	-361.5849304199219	-836.8128051757812	69.51959228515625	-476.4827880859375	-1030.872436523438	24.08678245544434	-407.531982421875	-1233.955200195312	513.7651977539062	-195.7789306640625	-1189.274536132812	790.8165893554688	-156.2094421386719	-1454.101196289062	38.53112030029297	-235.8418579101562	-1291.5732421875	385.4314270019531	-190.0085906982422	-1218.014770507812	43.77610015869141	-250.0921783447266	-1269.692626953125	30.99770164489746	-297.5703735351562	-1324.300903320312	40.74434661865234	-189.5940551757812	-1504.007568359375	46.96462631225586	-293.800048828125	
